<svg width="116" height="24" viewBox="0 0 116 24" fill="none" xmlns="http://www.w3.org/2000/svg">
<path d="M11.9997 0L22.392 6V18L11.9997 24L1.60742 18V6L11.9997 0Z" fill="url(#paint0_linear_85_826)"/>
<g style="mix-blend-mode:multiply" opacity="0.5">
<path d="M1.60742 18L11.9997 24V12L1.60742 6V18Z" fill="#37E2C3"/>
</g>
<g style="mix-blend-mode:multiply" opacity="0.5">
<path d="M1.60742 6L11.9997 0V12L1.60742 18V6Z" fill="#75D7ED"/>
</g>
<g style="mix-blend-mode:multiply" opacity="0.5">
<path d="M22.3923 18V6L12 12V24L22.3923 18Z" fill="#59B3B9"/>
</g>
<g style="mix-blend-mode:multiply" opacity="0.5">
<path d="M22.3923 6V18L12 12V0L22.3923 6Z" fill="#2CF2AA"/>
</g>
<path fill-rule="evenodd" clip-rule="evenodd" d="M17.0322 9.99994L10.9992 16.0329L7.27566 12.3093L8.68988 10.8951L10.9992 13.2044L15.618 8.58573L17.0322 9.99994Z" fill="white"/>
<path d="M112.103 16.2344L114.16 9.60352H115.514L112.547 18.1416C112.479 18.3239 112.387 18.5199 112.273 18.7295C112.164 18.9437 112.023 19.1465 111.85 19.3379C111.676 19.5293 111.467 19.6842 111.221 19.8027C110.979 19.9258 110.69 19.9873 110.353 19.9873C110.252 19.9873 110.125 19.9736 109.97 19.9463C109.815 19.9189 109.705 19.8962 109.642 19.8779L109.635 18.8525C109.671 18.8571 109.728 18.8617 109.806 18.8662C109.888 18.8753 109.945 18.8799 109.977 18.8799C110.264 18.8799 110.507 18.8411 110.708 18.7637C110.909 18.6908 111.077 18.5654 111.214 18.3877C111.355 18.2145 111.476 17.9753 111.576 17.6699L112.103 16.2344ZM110.592 9.60352L112.513 15.3457L112.841 16.6787L111.932 17.1436L109.211 9.60352H110.592Z" fill="#2D3E47"/>
<path d="M106.423 10.7656V17H105.158V9.60352H106.389L106.423 10.7656ZM108.733 9.5625L108.727 10.7383C108.622 10.7155 108.521 10.7018 108.426 10.6973C108.335 10.6882 108.23 10.6836 108.111 10.6836C107.82 10.6836 107.562 10.7292 107.339 10.8203C107.116 10.9115 106.926 11.0391 106.771 11.2031C106.617 11.3672 106.493 11.5632 106.402 11.791C106.316 12.0143 106.259 12.2604 106.231 12.5293L105.876 12.7344C105.876 12.2878 105.919 11.8685 106.006 11.4766C106.097 11.0846 106.236 10.7383 106.423 10.4375C106.61 10.1322 106.847 9.89518 107.134 9.72656C107.425 9.55339 107.772 9.4668 108.173 9.4668C108.264 9.4668 108.369 9.47819 108.487 9.50098C108.606 9.51921 108.688 9.53971 108.733 9.5625Z" fill="#2D3E47"/>
<path d="M103.675 9.60352V10.5742H99.6758V9.60352H103.675ZM101.029 7.80566H102.294V15.168C102.294 15.4186 102.333 15.6077 102.41 15.7354C102.488 15.863 102.588 15.9473 102.711 15.9883C102.834 16.0293 102.966 16.0498 103.107 16.0498C103.212 16.0498 103.322 16.0407 103.436 16.0225C103.554 15.9997 103.643 15.9814 103.702 15.9678L103.709 17C103.609 17.0319 103.477 17.0615 103.312 17.0889C103.153 17.1208 102.959 17.1367 102.731 17.1367C102.422 17.1367 102.137 17.0752 101.877 16.9521C101.617 16.8291 101.41 16.624 101.255 16.3369C101.104 16.0452 101.029 15.6533 101.029 15.1611V7.80566Z" fill="#2D3E47"/>
<path d="M97.6523 15.0381C97.6523 14.8558 97.6113 14.6872 97.5293 14.5322C97.4518 14.3727 97.29 14.2292 97.0439 14.1016C96.8024 13.9694 96.4378 13.8555 95.9502 13.7598C95.54 13.6732 95.1686 13.5706 94.8359 13.4521C94.5078 13.3337 94.2275 13.1901 93.9951 13.0215C93.7673 12.8529 93.5918 12.6546 93.4688 12.4268C93.3457 12.1989 93.2842 11.9323 93.2842 11.627C93.2842 11.3353 93.348 11.0596 93.4756 10.7998C93.6077 10.54 93.7923 10.3099 94.0293 10.1094C94.2708 9.90885 94.5602 9.75163 94.8975 9.6377C95.2347 9.52376 95.6107 9.4668 96.0254 9.4668C96.6178 9.4668 97.1237 9.57161 97.543 9.78125C97.9622 9.99089 98.2835 10.2712 98.5068 10.6221C98.7301 10.9684 98.8418 11.3535 98.8418 11.7773H97.5771C97.5771 11.5723 97.5156 11.374 97.3926 11.1826C97.2741 10.9867 97.0986 10.8249 96.8662 10.6973C96.6383 10.5697 96.3581 10.5059 96.0254 10.5059C95.6745 10.5059 95.3896 10.5605 95.1709 10.6699C94.9567 10.7747 94.7995 10.9092 94.6992 11.0732C94.6035 11.2373 94.5557 11.4105 94.5557 11.5928C94.5557 11.7295 94.5785 11.8525 94.624 11.9619C94.6742 12.0667 94.7607 12.1647 94.8838 12.2559C95.0068 12.3424 95.18 12.4245 95.4033 12.502C95.6266 12.5794 95.9115 12.6569 96.2578 12.7344C96.8639 12.8711 97.363 13.0352 97.7549 13.2266C98.1468 13.418 98.4385 13.6527 98.6299 13.9307C98.8213 14.2087 98.917 14.5459 98.917 14.9424C98.917 15.266 98.8486 15.5622 98.7119 15.8311C98.5798 16.0999 98.3861 16.3324 98.1309 16.5283C97.8802 16.7197 97.5794 16.8701 97.2285 16.9795C96.8822 17.0843 96.4925 17.1367 96.0596 17.1367C95.4079 17.1367 94.8564 17.0205 94.4053 16.7881C93.9541 16.5557 93.6123 16.2549 93.3799 15.8857C93.1475 15.5166 93.0312 15.127 93.0312 14.7168H94.3027C94.321 15.0632 94.4212 15.3389 94.6035 15.5439C94.7858 15.7445 95.0091 15.888 95.2734 15.9746C95.5378 16.0566 95.7998 16.0977 96.0596 16.0977C96.4059 16.0977 96.6953 16.0521 96.9277 15.9609C97.1647 15.8698 97.3447 15.7445 97.4678 15.585C97.5908 15.4255 97.6523 15.2432 97.6523 15.0381Z" fill="#2D3E47"/>
<path d="M91.3164 9.60352V17H90.0449V9.60352H91.3164ZM89.9492 7.6416C89.9492 7.43652 90.0107 7.26335 90.1338 7.12207C90.2614 6.98079 90.4482 6.91016 90.6943 6.91016C90.9359 6.91016 91.1204 6.98079 91.248 7.12207C91.3802 7.26335 91.4463 7.43652 91.4463 7.6416C91.4463 7.83757 91.3802 8.00618 91.248 8.14746C91.1204 8.28418 90.9359 8.35254 90.6943 8.35254C90.4482 8.35254 90.2614 8.28418 90.1338 8.14746C90.0107 8.00618 89.9492 7.83757 89.9492 7.6416Z" fill="#2D3E47"/>
<path d="M86.8721 9.60352H88.0205V16.8428C88.0205 17.4945 87.8883 18.0505 87.624 18.5107C87.3597 18.971 86.9906 19.3197 86.5166 19.5566C86.0472 19.7982 85.5049 19.9189 84.8896 19.9189C84.6344 19.9189 84.3337 19.8779 83.9873 19.7959C83.6455 19.7184 83.3083 19.584 82.9756 19.3926C82.6475 19.2057 82.3717 18.9528 82.1484 18.6338L82.8115 17.8818C83.1214 18.2555 83.445 18.5153 83.7822 18.6611C84.124 18.807 84.4613 18.8799 84.7939 18.8799C85.195 18.8799 85.5413 18.8047 85.833 18.6543C86.1247 18.5039 86.3503 18.2806 86.5098 17.9844C86.6738 17.6927 86.7559 17.3327 86.7559 16.9043V11.2305L86.8721 9.60352ZM81.7793 13.3838V13.2402C81.7793 12.6751 81.8454 12.1624 81.9775 11.7021C82.1143 11.2373 82.3079 10.8385 82.5586 10.5059C82.8138 10.1732 83.1214 9.91797 83.4814 9.74023C83.8415 9.55794 84.2471 9.4668 84.6982 9.4668C85.1631 9.4668 85.5687 9.54883 85.915 9.71289C86.266 9.8724 86.5622 10.1071 86.8037 10.417C87.0498 10.7223 87.2435 11.0915 87.3848 11.5244C87.526 11.9574 87.624 12.4473 87.6787 12.9941V13.623C87.6286 14.1654 87.5306 14.653 87.3848 15.0859C87.2435 15.5189 87.0498 15.888 86.8037 16.1934C86.5622 16.4987 86.266 16.7334 85.915 16.8975C85.5641 17.057 85.154 17.1367 84.6846 17.1367C84.2425 17.1367 83.8415 17.0433 83.4814 16.8564C83.126 16.6696 82.8206 16.4076 82.5654 16.0703C82.3102 15.7331 82.1143 15.3366 81.9775 14.8809C81.8454 14.4206 81.7793 13.9215 81.7793 13.3838ZM83.0439 13.2402V13.3838C83.0439 13.7529 83.0804 14.0993 83.1533 14.4229C83.2308 14.7464 83.347 15.0312 83.502 15.2773C83.6615 15.5234 83.8643 15.7171 84.1104 15.8584C84.3564 15.9951 84.6504 16.0635 84.9922 16.0635C85.4115 16.0635 85.7578 15.9746 86.0312 15.7969C86.3047 15.6191 86.5212 15.3844 86.6807 15.0928C86.8447 14.8011 86.9723 14.4844 87.0635 14.1426V12.4951C87.0133 12.2445 86.9359 12.0029 86.8311 11.7705C86.7308 11.5335 86.5986 11.3239 86.4346 11.1416C86.2751 10.9548 86.0768 10.8066 85.8398 10.6973C85.6029 10.5879 85.3249 10.5332 85.0059 10.5332C84.6595 10.5332 84.361 10.6061 84.1104 10.752C83.8643 10.8932 83.6615 11.0892 83.502 11.3398C83.347 11.5859 83.2308 11.873 83.1533 12.2012C83.0804 12.5247 83.0439 12.8711 83.0439 13.2402Z" fill="#2D3E47"/>
<path d="M77.7256 17.1367C77.2106 17.1367 76.7435 17.0501 76.3242 16.877C75.9095 16.6992 75.5518 16.4508 75.251 16.1318C74.9548 15.8128 74.7269 15.4346 74.5674 14.9971C74.4079 14.5596 74.3281 14.0811 74.3281 13.5615V13.2744C74.3281 12.6729 74.417 12.1374 74.5947 11.668C74.7725 11.194 75.014 10.793 75.3193 10.4648C75.6247 10.1367 75.971 9.88835 76.3584 9.71973C76.7458 9.55111 77.1468 9.4668 77.5615 9.4668C78.0902 9.4668 78.5459 9.55794 78.9287 9.74023C79.3161 9.92253 79.6328 10.1777 79.8789 10.5059C80.125 10.8294 80.3073 11.2122 80.4258 11.6543C80.5443 12.0918 80.6035 12.5703 80.6035 13.0898V13.6572H75.0801V12.625H79.3389V12.5293C79.3206 12.2012 79.2523 11.8822 79.1338 11.5723C79.0199 11.2624 78.8376 11.0072 78.5869 10.8066C78.3363 10.6061 77.9945 10.5059 77.5615 10.5059C77.2744 10.5059 77.0101 10.5674 76.7686 10.6904C76.527 10.8089 76.3197 10.9867 76.1465 11.2236C75.9733 11.4606 75.8389 11.75 75.7432 12.0918C75.6475 12.4336 75.5996 12.8278 75.5996 13.2744V13.5615C75.5996 13.9124 75.6475 14.2428 75.7432 14.5527C75.8434 14.8581 75.987 15.127 76.1738 15.3594C76.3652 15.5918 76.5954 15.7741 76.8643 15.9062C77.1377 16.0384 77.4476 16.1045 77.7939 16.1045C78.2406 16.1045 78.6188 16.0133 78.9287 15.8311C79.2386 15.6488 79.5098 15.4049 79.7422 15.0996L80.5078 15.708C80.3483 15.9495 80.1455 16.1797 79.8994 16.3984C79.6533 16.6172 79.3503 16.7949 78.9902 16.9316C78.6348 17.0684 78.2132 17.1367 77.7256 17.1367Z" fill="#2D3E47"/>
<path d="M66.2207 7.04688H69.5156C70.263 7.04688 70.8942 7.16081 71.4092 7.38867C71.9287 7.61654 72.3229 7.95378 72.5918 8.40039C72.8652 8.84245 73.002 9.38704 73.002 10.0342C73.002 10.4899 72.9085 10.9069 72.7217 11.2852C72.5394 11.6589 72.2751 11.9779 71.9287 12.2422C71.5869 12.502 71.1768 12.6956 70.6982 12.8232L70.3291 12.9668H67.2324L67.2188 11.8936H69.5566C70.0306 11.8936 70.4248 11.8115 70.7393 11.6475C71.0537 11.4788 71.2907 11.2533 71.4502 10.9707C71.6097 10.6882 71.6895 10.376 71.6895 10.0342C71.6895 9.65137 71.6143 9.31641 71.4639 9.0293C71.3135 8.74219 71.0765 8.52116 70.7529 8.36621C70.4339 8.20671 70.0215 8.12695 69.5156 8.12695H67.54V17H66.2207V7.04688ZM72.0381 17L69.6182 12.4883L70.9922 12.4814L73.4463 16.918V17H72.0381Z" fill="#2D3E47"/>
<path d="M61.3125 9.60352V11.2031H56.8555V9.60352H61.3125ZM57.792 7.76465H60.0957V14.5869C60.0957 14.7829 60.1185 14.9355 60.1641 15.0449C60.2096 15.1497 60.2871 15.2249 60.3965 15.2705C60.5104 15.3115 60.6608 15.332 60.8477 15.332C60.9798 15.332 61.0892 15.3298 61.1758 15.3252C61.2624 15.3161 61.3444 15.3047 61.4219 15.291V16.9385C61.2259 17.0023 61.0208 17.0501 60.8066 17.082C60.5924 17.1185 60.3646 17.1367 60.123 17.1367C59.6309 17.1367 59.2093 17.0592 58.8584 16.9043C58.512 16.7493 58.2477 16.5055 58.0654 16.1729C57.8831 15.8402 57.792 15.4072 57.792 14.874V7.76465Z" fill="#2D3E47"/>
<path d="M54.1152 14.9219C54.1152 14.7943 54.0719 14.6849 53.9854 14.5938C53.9033 14.498 53.7575 14.4115 53.5479 14.334C53.3382 14.252 53.0443 14.1699 52.666 14.0879C52.306 14.0104 51.9665 13.9079 51.6475 13.7803C51.333 13.6527 51.0573 13.4977 50.8203 13.3154C50.5833 13.1331 50.3965 12.9167 50.2598 12.666C50.1276 12.4154 50.0615 12.1283 50.0615 11.8047C50.0615 11.4902 50.1276 11.194 50.2598 10.916C50.3965 10.6335 50.5947 10.3851 50.8545 10.1709C51.1188 9.95215 51.4401 9.78125 51.8184 9.6582C52.1966 9.5306 52.6273 9.4668 53.1104 9.4668C53.7757 9.4668 54.3499 9.56934 54.833 9.77441C55.3161 9.97493 55.6875 10.2575 55.9473 10.6221C56.2116 10.9821 56.3438 11.3991 56.3438 11.873H54.04C54.04 11.6862 54.0081 11.5267 53.9443 11.3945C53.8851 11.2624 53.7871 11.1621 53.6504 11.0938C53.5137 11.0208 53.3314 10.9844 53.1035 10.9844C52.944 10.9844 52.7982 11.014 52.666 11.0732C52.5384 11.1325 52.4359 11.2145 52.3584 11.3193C52.2809 11.4242 52.2422 11.5472 52.2422 11.6885C52.2422 11.7887 52.265 11.8799 52.3105 11.9619C52.3607 12.0394 52.4359 12.1123 52.5361 12.1807C52.6364 12.2445 52.764 12.3037 52.9189 12.3584C53.0739 12.4085 53.2607 12.4541 53.4795 12.4951C53.9762 12.5863 54.4411 12.7161 54.874 12.8848C55.307 13.0534 55.6579 13.2926 55.9268 13.6025C56.2002 13.9124 56.3369 14.3294 56.3369 14.8535C56.3369 15.1816 56.2617 15.4847 56.1113 15.7627C55.9609 16.0361 55.7445 16.2777 55.4619 16.4873C55.1794 16.6924 54.8398 16.8519 54.4434 16.9658C54.0469 17.0798 53.6003 17.1367 53.1035 17.1367C52.3971 17.1367 51.8001 17.0114 51.3125 16.7607C50.8249 16.5055 50.4557 16.1865 50.2051 15.8037C49.959 15.4163 49.8359 15.0244 49.8359 14.6279H51.9824C51.9915 14.8558 52.0462 15.0426 52.1465 15.1885C52.2513 15.3343 52.3903 15.4414 52.5635 15.5098C52.7367 15.5781 52.9372 15.6123 53.165 15.6123C53.3747 15.6123 53.5479 15.5827 53.6846 15.5234C53.8258 15.4642 53.9329 15.3844 54.0059 15.2842C54.0788 15.1794 54.1152 15.0586 54.1152 14.9219Z" fill="#2D3E47"/>
<path d="M46.6562 15.2021V9.60352H48.9668V17H46.8066L46.6562 15.2021ZM46.875 13.6982L47.4766 13.6846C47.4766 14.1813 47.4173 14.6416 47.2988 15.0654C47.1803 15.4847 47.0049 15.8493 46.7725 16.1592C46.5446 16.4691 46.262 16.7106 45.9248 16.8838C45.5921 17.0524 45.207 17.1367 44.7695 17.1367C44.4049 17.1367 44.07 17.0866 43.7646 16.9863C43.4639 16.8815 43.2041 16.7197 42.9854 16.501C42.7666 16.2777 42.5957 15.9928 42.4727 15.6465C42.3542 15.2956 42.2949 14.8763 42.2949 14.3887V9.60352H44.5986V14.4023C44.5986 14.5664 44.6191 14.7077 44.6602 14.8262C44.7012 14.9447 44.7604 15.0449 44.8379 15.127C44.9154 15.2044 45.0111 15.2637 45.125 15.3047C45.2435 15.3411 45.3779 15.3594 45.5283 15.3594C45.8747 15.3594 46.1458 15.2865 46.3418 15.1406C46.5378 14.9948 46.6745 14.7965 46.752 14.5459C46.834 14.2952 46.875 14.0127 46.875 13.6982Z" fill="#2D3E47"/>
<path d="M39.3545 11.4355V17H37.0508V9.60352H39.2041L39.3545 11.4355ZM41.542 9.54883L41.501 11.6885C41.4098 11.6794 41.2868 11.668 41.1318 11.6543C40.9769 11.6406 40.847 11.6338 40.7422 11.6338C40.4733 11.6338 40.2409 11.6657 40.0449 11.7295C39.8535 11.7887 39.694 11.8799 39.5664 12.0029C39.4434 12.1214 39.3522 12.2718 39.293 12.4541C39.2383 12.6364 39.2132 12.8483 39.2178 13.0898L38.8008 12.8164C38.8008 12.3197 38.8486 11.8685 38.9443 11.4629C39.0446 11.0527 39.1859 10.6995 39.3682 10.4033C39.5505 10.1025 39.7715 9.8724 40.0312 9.71289C40.291 9.54883 40.5827 9.4668 40.9062 9.4668C41.0202 9.4668 41.1318 9.47363 41.2412 9.4873C41.3551 9.50098 41.4554 9.52148 41.542 9.54883Z" fill="#2D3E47"/>
<path d="M33.5791 7.04688V17H31.1797V7.04688H33.5791ZM36.5732 7.04688V8.89941H28.2539V7.04688H36.5732Z" fill="#2D3E47"/>
<defs>
<linearGradient id="paint0_linear_85_826" x1="11.9998" y1="24" x2="11.9998" y2="-2.47564e-07" gradientUnits="userSpaceOnUse">
<stop stop-color="#3CB98C"/>
<stop offset="1" stop-color="#00FFA3"/>
</linearGradient>
</defs>
</svg>
